<svg width="30" height="30" viewBox="0 0 30 30" fill="none" xmlns="http://www.w3.org/2000/svg">
<path d="M18.1289 8.2373C17.7045 8.2373 17.291 8.27654 16.893 8.35016C17.6172 8.67107 18.1098 9.30378 18.1098 10.0323C18.1098 11.0851 17.0805 11.9386 15.8109 11.9386C14.6135 11.9386 13.6304 11.1794 13.5222 10.2099C12.8659 10.9753 12.48 11.911 12.48 12.9218C12.48 15.5089 15.009 17.6059 18.1289 17.6059C21.2488 17.6059 23.7778 15.5086 23.7778 12.9218C23.7778 10.3344 21.2484 8.2373 18.1289 8.2373Z" fill="#282828"/>
<path d="M15 0C6.71581 0 0 6.71581 0 15C0 23.2842 6.71581 30 15 30C23.2842 30 30 23.2842 30 15C30 6.71581 23.2842 0 15 0ZM15.0481 24.8447C13.2357 24.8447 7.31414 18.1827 7.31414 12.8893C7.31414 8.61788 10.7767 5.15534 15.0481 5.15534C19.3194 5.15534 22.6859 8.61788 22.6859 12.8893C22.6859 18.0841 16.7643 24.8447 15.0481 24.8447Z" fill="#282828"/>
</svg>
