<svg width="158" height="115" viewBox="0 0 158 115" fill="none" xmlns="http://www.w3.org/2000/svg">
<path fill-rule="evenodd" clip-rule="evenodd" d="M140.688 60.2932C142.247 58.7468 144.762 58.7468 146.321 60.2932L155.136 69.0348C156.714 70.5996 156.714 73.1505 155.136 74.7152L143.505 86.25L155.136 97.7848C156.714 99.3496 156.714 101.9 155.136 103.465L146.321 112.207C144.762 113.753 142.247 113.753 140.688 112.207L129.009 100.625L117.33 112.207C115.771 113.753 113.257 113.753 111.697 112.207L102.882 103.465C101.304 101.9 101.304 99.3496 102.882 97.7848L114.514 86.25L102.882 74.7152C101.304 73.1505 101.304 70.5996 102.882 69.0348L111.697 60.2932C113.257 58.7468 115.771 58.7468 117.33 60.2932L129.009 71.875L140.688 60.2932ZM129.009 71.875L114.514 86.25L129.009 100.625L143.505 86.25L129.009 71.875Z" fill="#F5F5F5"/>
<path fill-rule="evenodd" clip-rule="evenodd" d="M82.7056 60.2932C84.265 58.7468 86.7795 58.7468 88.3388 60.2932L97.1536 69.0348C98.7315 70.5996 98.7315 73.1505 97.1536 74.7152L85.5222 86.25L97.1536 97.7848C98.7315 99.3496 98.7315 101.9 97.1536 103.465L88.3388 112.207C86.7795 113.753 84.265 113.753 82.7056 112.207L71.0268 100.625L59.348 112.207C57.7887 113.753 55.2742 113.753 53.7148 112.207L44.9 103.465C43.3221 101.9 43.3221 99.3496 44.9 97.7848L56.5314 86.25L44.9 74.7152C43.3221 73.1505 43.3221 70.5996 44.9 69.0348L53.7148 60.2932C55.2741 58.7468 57.7886 58.7468 59.348 60.2932L71.0268 71.875L82.7056 60.2932ZM71.0268 71.875L56.5314 86.25L71.0268 100.625L85.5222 86.25L71.0268 71.875Z" fill="#F5F5F5"/>
<path fill-rule="evenodd" clip-rule="evenodd" d="M98.6506 2.79322C100.21 1.24681 102.724 1.24682 104.284 2.79322L113.099 11.5348C114.676 13.0996 114.676 15.6505 113.099 17.2152L101.467 28.75L113.099 40.2848C114.676 41.8496 114.676 44.4005 113.099 45.9652L104.284 54.7068C102.724 56.2532 100.21 56.2532 98.6506 54.7068L86.9718 43.125L75.293 54.7068C73.7336 56.2532 71.2191 56.2532 69.6597 54.7068L60.8449 45.9652C59.2671 44.4005 59.2671 41.8496 60.8449 40.2848L72.4763 28.75L60.8449 17.2152C59.2671 15.6505 59.2671 13.0996 60.8449 11.5348L69.6597 2.79322C71.2191 1.24682 73.7336 1.24682 75.2929 2.79323L86.9718 14.375L98.6506 2.79322ZM86.9718 14.375L72.4763 28.75L86.9718 43.125L101.467 28.75L86.9718 14.375Z" fill="#F5F5F5"/>
<path fill-rule="evenodd" clip-rule="evenodd" d="M40.6696 2.79322C42.229 1.24682 44.7435 1.24682 46.3028 2.79322L55.1177 11.5348C56.6955 13.0996 56.6955 15.6505 55.1177 17.2152L43.4862 28.75L55.1177 40.2848C56.6955 41.8496 56.6955 44.4005 55.1177 45.9652L46.3029 54.7068C44.7435 56.2532 42.229 56.2532 40.6696 54.7068L28.9908 43.125L17.312 54.7068C15.7527 56.2532 13.2382 56.2532 11.6788 54.7068L2.864 45.9652C1.28614 44.4005 1.28614 41.8496 2.864 40.2848L14.4954 28.75L2.864 17.2152C1.28614 15.6505 1.28613 13.0996 2.86399 11.5348L11.6788 2.79322C13.2382 1.24682 15.7527 1.24682 17.312 2.79323L28.9908 14.375L40.6696 2.79322ZM28.9908 14.375L14.4954 28.75L28.9908 43.125L43.4862 28.75L28.9908 14.375Z" fill="#F5F5F5"/>
</svg>
