<svg width="60" height="44" viewBox="0 0 60 44" fill="none" xmlns="http://www.w3.org/2000/svg">
<path fill-rule="evenodd" clip-rule="evenodd" d="M51.7454 24.7478C53.2646 23.2299 55.7263 23.2299 57.2454 24.7478C58.7663 26.2674 58.7663 28.7327 57.2454 30.2523L54.4954 33L57.2454 35.7477C58.7664 37.2674 58.7664 39.7326 57.2454 41.2523C55.7263 42.7702 53.2646 42.7702 51.7454 41.2523L48.9908 38.5L46.2362 41.2523C44.7171 42.7702 42.2554 42.7702 40.7363 41.2523C39.2153 39.7326 39.2153 37.2674 40.7362 35.7477L43.4862 33L40.7362 30.2523C39.2153 28.7327 39.2153 26.2674 40.7362 24.7478C42.2554 23.2299 44.7171 23.2299 46.2362 24.7478L48.9908 27.5001L51.7454 24.7478ZM48.9908 27.5001L43.4862 33L48.9908 38.5L54.4954 33L48.9908 27.5001Z" fill="white"/>
<path fill-rule="evenodd" clip-rule="evenodd" d="M29.7269 24.7478C31.246 23.2299 33.7077 23.2299 35.2268 24.7478C36.7478 26.2674 36.7478 28.7327 35.2268 30.2523L32.4769 33L35.2268 35.7477C36.7478 37.2674 36.7478 39.7326 35.2268 41.2523C33.7077 42.7702 31.246 42.7702 29.7269 41.2523L26.9723 38.5L24.2177 41.2523C22.6985 42.7702 20.2368 42.7702 18.7177 41.2523C17.1967 39.7326 17.1967 37.2674 18.7177 35.7477L21.4677 33L18.7177 30.2523C17.1967 28.7327 17.1967 26.2674 18.7177 24.7478C20.2368 23.2299 22.6985 23.2299 24.2177 24.7478L26.9723 27.5001L29.7269 24.7478ZM26.9723 27.5001L21.4677 33L26.9723 38.5L32.4769 33L26.9723 27.5001Z" fill="white"/>
<path fill-rule="evenodd" clip-rule="evenodd" d="M35.782 2.74776C37.3012 1.22988 39.7629 1.22988 41.282 2.74776C42.803 4.26743 42.803 6.73266 41.282 8.25234L38.532 11L41.282 13.7477C42.803 15.2674 42.803 17.7326 41.282 19.2523C39.7629 20.7702 37.3012 20.7702 35.782 19.2523L33.0274 16.5L30.2729 19.2523C28.7537 20.7702 26.292 20.7702 24.7729 19.2523C23.2519 17.7326 23.2519 15.2674 24.7729 13.7477L27.5229 11L24.7729 8.25235C23.2519 6.73267 23.2519 4.26744 24.7729 2.74776C26.292 1.22988 28.7537 1.22988 30.2728 2.74776L33.0274 5.50005L35.782 2.74776ZM33.0274 5.50005L27.5229 11L33.0274 16.5L38.532 11L33.0274 5.50005Z" fill="white"/>
<path fill-rule="evenodd" clip-rule="evenodd" d="M13.7638 2.74776C15.283 1.22988 17.7447 1.22988 19.2638 2.74776C20.7848 4.26743 20.7848 6.73267 19.2638 8.25234L16.5138 11L19.2638 13.7477C20.7848 15.2674 20.7848 17.7326 19.2638 19.2523C17.7447 20.7702 15.283 20.7702 13.7639 19.2523L11.0093 16.5L8.25467 19.2523C6.73552 20.7702 4.27383 20.7702 2.75468 19.2523C1.23374 17.7326 1.23373 15.2674 2.75468 13.7477L5.50467 11L2.75468 8.25235C1.23373 6.73267 1.23373 4.26744 2.75468 2.74776C4.27383 1.22988 6.73551 1.22988 8.25466 2.74776L11.0093 5.50005L13.7638 2.74776ZM11.0093 5.50005L5.50467 11L11.0093 16.5L16.5138 11L11.0093 5.50005Z" fill="white"/>
</svg>
