<svg width="32" height="32" viewBox="0 0 32 32" fill="none" xmlns="http://www.w3.org/2000/svg">
<path d="M8 8H24C25.1 8 26 8.9 26 10V22C26 23.1 25.1 24 24 24H8C6.9 24 6 23.1 6 22V10C6 8.9 6.9 8 8 8Z" fill="black"/>
<path d="M26 10L16 17L6 10" fill="black"/>
<path d="M26 10C26 8.9 25.1 8 24 8H8C6.9 8 6 8.9 6 10M26 10V22C26 23.1 25.1 24 24 24H8C6.9 24 6 23.1 6 22V10M26 10L16 17L6 10" stroke="white" stroke-linecap="round" stroke-linejoin="round"/>
<circle cx="16" cy="16" r="15.5" stroke="black"/>
</svg>
