<svg width="147" height="37" viewBox="0 0 147 37" fill="none" xmlns="http://www.w3.org/2000/svg">
<path fill-rule="evenodd" clip-rule="evenodd" d="M16.1512 36.7013L11.6097 32.321C11.2 31.9228 11.2 31.2592 11.6097 30.8278L21.9219 20.8394C22.3317 20.4412 23.0146 20.4412 23.4585 20.8394L27.9658 25.2197C28.3756 25.6179 28.3756 26.2816 27.9658 26.713L17.6536 36.7013C17.2439 37.0995 16.561 37.0995 16.1512 36.7013Z" fill="url(#paint0_linear_156_490)"/>
<path fill-rule="evenodd" clip-rule="evenodd" d="M16.1512 36.7013L11.6098 32.321C11.5756 32.2879 11.5415 32.2215 11.4732 32.1883C14.9561 31.7901 20.1463 30.9605 25.4049 29.1686L17.6195 36.7345C17.2439 37.0995 16.561 37.0995 16.1512 36.7013Z" fill="#98191C"/>
<path fill-rule="evenodd" clip-rule="evenodd" d="M21.6829 0.298655L26.1902 4.67892C26.6 5.07713 26.6 5.74081 26.1902 6.1722L15.9122 16.1605C15.5024 16.5587 14.8195 16.5587 14.3756 16.1605L9.86829 11.7803C9.45854 11.3821 9.45854 10.7184 9.86829 10.287L20.1805 0.298655C20.5902 -0.0995516 21.2732 -0.0995516 21.6829 0.298655Z" fill="url(#paint1_linear_156_490)"/>
<path fill-rule="evenodd" clip-rule="evenodd" d="M21.6829 0.298655L26.1902 4.67892C26.2244 4.71211 26.2585 4.77848 26.3268 4.81166C22.8439 5.20987 17.6536 6.03946 12.3951 7.83139L20.1805 0.298655C20.5902 -0.0995516 21.2732 -0.0995516 21.6829 0.298655Z" fill="#EF8B07"/>
<path fill-rule="evenodd" clip-rule="evenodd" d="M37.5268 21.2044L33.0195 25.5847C32.6097 25.9829 31.9268 25.9829 31.4829 25.5847L21.239 15.53C20.8293 15.1318 20.8293 14.4681 21.239 14.0367L25.7463 9.65644C26.1561 9.25824 26.839 9.25824 27.2829 9.65644L37.561 19.678C37.9707 20.1094 37.9707 20.8062 37.5268 21.2044Z" fill="url(#paint2_linear_156_490)"/>
<path fill-rule="evenodd" clip-rule="evenodd" d="M37.5268 21.2045L33.0195 25.5847C32.9854 25.6179 32.9171 25.6511 32.8829 25.7175C32.4732 22.3327 31.6195 17.2888 29.8098 12.1785L37.561 19.7444C37.9707 20.1094 37.9707 20.8063 37.5268 21.2045Z" fill="#144072"/>
<path fill-rule="evenodd" clip-rule="evenodd" d="M0.307317 15.7291L4.81463 11.3488C5.22439 10.9506 5.90732 10.9506 6.35122 11.3488L16.6293 21.3704C17.039 21.7686 17.039 22.4322 16.6293 22.8636L12.0878 27.2107C11.678 27.6089 10.9951 27.6089 10.5512 27.2107L0.307317 17.1892C-0.102439 16.791 -0.102439 16.1273 0.307317 15.7291Z" fill="url(#paint3_linear_156_490)"/>
<path fill-rule="evenodd" clip-rule="evenodd" d="M0.307317 15.7292L4.81463 11.3489C4.84878 11.3157 4.91707 11.2826 4.95122 11.2162C5.36098 14.6009 6.21463 19.6449 8.02439 24.7552L0.307317 17.1893C-0.102439 16.7911 -0.102439 16.1274 0.307317 15.7292Z" fill="#68872C"/>
<path d="M51.8683 17.6207L47.8049 12.7758L51.6975 8.4951H49.1024L45.7219 12.5767V8.4951H43.7073V17.6207H45.7219V14.8332L46.4732 13.9704L49.3756 17.6207H51.8683ZM62.0439 17.6207L58.3561 8.4951H55.8293L52.1415 17.6207H54.4634L55.078 16.061H59.1756L59.7561 17.6207H62.0439ZM58.561 14.3686H55.5902L57.0927 10.4529L58.561 14.3686ZM71.1268 17.6207V8.4951H62.5561V17.6207H64.5707V10.1875H69.078V17.5875H71.1268V17.6207ZM74.9512 17.6207L79.4927 11.5148V17.6207H81.5073V8.4951H79.4244L75.0195 14.4018V8.4951H73.0049V17.6207H74.9512ZM87.6536 17.6207V10.1875H90.4195V8.46191H82.8049V10.1875H85.6049V17.5875H87.6536V17.6207ZM100.629 17.6207L96.9414 8.4951H94.4146L90.7268 17.6207H93.0488L93.6634 16.061H97.761L98.3414 17.6207H100.629ZM97.1805 14.3686H94.2097L95.7122 10.4529L97.1805 14.3686ZM100.937 17.7866C101.312 17.7866 101.688 17.7534 102.029 17.687C102.371 17.6207 102.678 17.4879 102.985 17.2888C103.293 17.0897 103.532 16.8574 103.771 16.4924C104.01 16.1606 104.215 15.7292 104.385 15.1982C104.556 14.6673 104.693 14.0368 104.761 13.2736L105.137 10.1875H108.039V17.5875H110.088V8.4951H103.327L102.78 13.174C102.712 13.7713 102.61 14.2691 102.507 14.6341C102.405 14.9991 102.268 15.2978 102.132 15.5301C101.995 15.7292 101.824 15.8951 101.619 15.9615C101.415 16.0278 101.21 16.0942 100.971 16.061V17.7866H100.937ZM114.868 15.0323V13.539H111.454V15.0323H114.868ZM45.6536 30.9274L50.1951 24.8216V30.9274H52.2097V21.8018H50.1268L45.7219 27.7086V21.8018H43.7073V30.9274H45.6536ZM62.6927 30.9274V21.8018H60.6439V25.3857H56.1366V21.8018H54.1219V30.9274H56.1366V27.1112H60.6439V30.9274H62.6927ZM69.7268 30.9274C70.1707 30.9274 70.5805 30.861 70.9219 30.7283C71.2634 30.5955 71.5707 30.4296 71.7756 30.1973C72.0146 29.9651 72.1854 29.6996 72.2878 29.4009C72.3902 29.1023 72.4585 28.7704 72.4585 28.4386C72.4585 28.0404 72.3561 27.7086 72.2195 27.3767C72.0488 27.0449 71.8439 26.7794 71.5707 26.5803C71.2976 26.3812 70.9902 26.2485 70.6488 26.1821C70.9561 26.1157 71.2293 26.0162 71.4683 25.8171C71.7073 25.6512 71.9122 25.3857 72.0488 25.1202C72.1854 24.8216 72.2878 24.4897 72.2878 24.0915C72.2878 23.7929 72.2195 23.4942 72.1171 23.2287C72.0146 22.9633 71.8439 22.6978 71.6049 22.4987C71.3658 22.2664 71.0927 22.1005 70.7512 21.9677C70.4097 21.835 70 21.7686 69.5561 21.7686H64.5366V30.8942H69.7268V30.9274ZM69.1463 25.452H66.5854V23.461H69.1122C69.3512 23.461 69.5561 23.4942 69.6927 23.5938C69.8634 23.6933 70 23.7929 70.0683 23.9588C70.1707 24.1247 70.2049 24.2906 70.2049 24.4897C70.2049 24.6888 70.1707 24.8547 70.0683 24.9875C69.9658 25.1202 69.8634 25.2529 69.6927 25.3193C69.5561 25.4189 69.3512 25.452 69.1463 25.452ZM69.2146 29.2682H66.5854V27.1444H69.2146C69.4878 27.1444 69.6927 27.2108 69.8975 27.2772C70.0683 27.3767 70.2049 27.5094 70.3073 27.6754C70.4097 27.8413 70.4439 28.0072 70.4439 28.2063C70.4439 28.5381 70.3414 28.8036 70.1366 28.9695C69.8975 29.1686 69.5902 29.235 69.2146 29.2682ZM80.7902 30.9274V29.2018H76.078V27.1444H80.6878V25.4189H76.078V23.4942H80.7902V21.7686H74.0293V30.8942H80.7902V30.9274ZM86.9707 31.0933C87.4829 31.0933 87.961 31.0269 88.3707 30.8942C88.7805 30.7615 89.1561 30.5955 89.4975 30.3964C89.8049 30.1973 90.1122 29.9319 90.3512 29.6664C90.5902 29.4009 90.7951 29.1355 90.9658 28.8368L89.2244 28.0404C89.0878 28.3059 88.9171 28.505 88.678 28.7041C88.439 28.9032 88.2 29.0691 87.8927 29.1686C87.5854 29.3014 87.278 29.3346 86.9707 29.3346C86.5268 29.3346 86.1512 29.2682 85.7756 29.1023C85.4 28.9695 85.0927 28.7373 84.8195 28.4718C84.5463 28.2063 84.3414 27.8745 84.2049 27.5094C84.0683 27.1444 84 26.7462 83.9658 26.3148C83.9658 25.8834 84.0341 25.4852 84.2049 25.1202C84.3414 24.7552 84.5463 24.4234 84.8195 24.1579C85.0927 23.8924 85.4 23.6933 85.7756 23.5274C86.1512 23.3947 86.5268 23.2951 86.9707 23.2951C87.3122 23.2951 87.6195 23.3615 87.8927 23.461C88.2 23.5938 88.439 23.7265 88.678 23.9256C88.9171 24.1247 89.0878 24.357 89.2244 24.5893L90.9658 23.7597C90.7951 23.461 90.5902 23.1955 90.3512 22.9301C90.1122 22.6646 89.839 22.4323 89.4975 22.2332C89.1902 22.0341 88.8146 21.8682 88.3707 21.7355C87.961 21.6027 87.4829 21.5364 86.9707 21.5364C86.3902 21.5364 85.8439 21.6027 85.3317 21.7686C84.8195 21.9014 84.3414 22.1337 83.9317 22.3991C83.5219 22.6646 83.1463 22.9964 82.839 23.3947C82.5317 23.7929 82.2927 24.2242 82.1219 24.6888C81.9512 25.1866 81.8829 25.6843 81.8829 26.2485C81.8829 26.8126 81.9854 27.3435 82.1219 27.8081C82.2927 28.2727 82.5317 28.7372 82.839 29.1023C83.1463 29.5005 83.5219 29.8323 83.9317 30.0978C84.3414 30.3633 84.8195 30.5955 85.3317 30.7283C85.878 31.0269 86.3902 31.0933 86.9707 31.0933ZM96.4293 30.9274V23.5274H99.1951V21.8018H91.5805V23.5274H94.3805V30.9274H96.4293ZM105.102 31.0933C105.615 31.0933 106.093 31.0269 106.502 30.8942C106.912 30.7615 107.288 30.5955 107.629 30.3964C107.937 30.1973 108.244 29.9319 108.483 29.6664C108.722 29.4009 108.927 29.1355 109.098 28.8368L107.356 28.0404C107.219 28.3059 107.049 28.505 106.81 28.7041C106.571 28.9032 106.332 29.0691 106.024 29.1686C105.717 29.3014 105.41 29.3346 105.102 29.3346C104.659 29.3346 104.283 29.2682 103.907 29.1023C103.532 28.9695 103.224 28.7373 102.951 28.4718C102.678 28.2063 102.473 27.8745 102.337 27.5094C102.2 27.1444 102.132 26.7462 102.098 26.3148C102.098 25.8834 102.166 25.4852 102.337 25.1202C102.473 24.7552 102.678 24.4234 102.951 24.1579C103.224 23.8924 103.532 23.6933 103.907 23.5274C104.283 23.3947 104.659 23.2951 105.102 23.2951C105.444 23.2951 105.751 23.3615 106.024 23.461C106.332 23.5938 106.571 23.7265 106.81 23.9256C107.049 24.1247 107.219 24.357 107.356 24.5893L109.098 23.7597C108.927 23.461 108.722 23.1955 108.483 22.9301C108.244 22.6646 107.971 22.4323 107.629 22.2332C107.322 22.0341 106.946 21.8682 106.502 21.7355C106.093 21.6027 105.615 21.5364 105.102 21.5364C104.522 21.5364 103.976 21.6027 103.463 21.7686C102.951 21.9014 102.473 22.1337 102.063 22.3991C101.654 22.6646 101.278 22.9964 100.971 23.3947C100.663 23.7929 100.424 24.2242 100.254 24.6888C100.083 25.1866 100.015 25.6843 100.015 26.2485C100.015 26.8126 100.117 27.3435 100.254 27.8081C100.424 28.2727 100.663 28.7372 100.971 29.1023C101.278 29.5005 101.654 29.8323 102.063 30.0978C102.473 30.3633 102.951 30.5955 103.463 30.7283C104.01 31.0269 104.556 31.0933 105.102 31.0933ZM114.561 30.9274V23.5274H117.327V21.8018H109.712V23.5274H112.512V30.9274H114.561ZM120.673 30.9274V27.6754H123.098C123.61 27.6754 124.054 27.609 124.463 27.4431C124.873 27.2772 125.18 27.0781 125.454 26.8126C125.727 26.5471 125.932 26.2153 126.068 25.8834C126.205 25.5184 126.273 25.1534 126.273 24.7552C126.273 24.357 126.205 23.9588 126.068 23.6269C125.932 23.2619 125.727 22.9633 125.454 22.6978C125.18 22.4323 124.839 22.2 124.463 22.0673C124.054 21.9014 123.61 21.835 123.098 21.835H118.624V30.9606H120.673V30.9274ZM122.824 25.983H120.673V23.5274H122.824C123.098 23.5274 123.337 23.5938 123.541 23.6601C123.746 23.7597 123.917 23.8924 124.054 24.0915C124.19 24.2574 124.224 24.4897 124.224 24.7552C124.224 25.0207 124.156 25.2198 124.054 25.4189C123.951 25.5848 123.78 25.7507 123.541 25.8503C123.337 25.9166 123.098 25.983 122.824 25.983ZM132.078 31.0933C132.795 31.0933 133.478 30.9606 134.093 30.7283C134.707 30.496 135.219 30.1642 135.663 29.7659C136.107 29.3346 136.449 28.8368 136.688 28.2727C136.927 27.7086 137.063 27.0781 137.063 26.3812C137.063 25.6843 136.927 25.0538 136.688 24.4897C136.449 23.9256 136.107 23.4278 135.663 22.9964C135.219 22.5651 134.673 22.2332 134.093 22.0341C133.478 21.8018 132.829 21.6691 132.078 21.6691C131.361 21.6691 130.678 21.8018 130.098 22.0341C129.483 22.2664 128.971 22.5982 128.527 22.9964C128.083 23.4278 127.741 23.9256 127.502 24.4897C127.263 25.0538 127.127 25.6843 127.127 26.3812C127.127 27.0781 127.263 27.7086 127.502 28.2727C127.741 28.8368 128.083 29.3346 128.527 29.7659C128.971 30.1973 129.483 30.5292 130.098 30.7283C130.678 30.9938 131.361 31.0933 132.078 31.0933ZM132.078 29.3677C131.634 29.3677 131.224 29.3014 130.883 29.1355C130.541 28.9695 130.234 28.7704 129.961 28.505C129.722 28.2395 129.517 27.9077 129.38 27.5426C129.244 27.1776 129.176 26.7794 129.176 26.348C129.176 25.9166 129.244 25.5184 129.38 25.1534C129.517 24.7884 129.722 24.4897 129.961 24.1911C130.2 23.9256 130.507 23.7265 130.883 23.5606C131.224 23.3947 131.634 23.3283 132.078 23.3283C132.522 23.3283 132.932 23.3947 133.273 23.5606C133.615 23.6933 133.922 23.9256 134.195 24.1911C134.434 24.4565 134.639 24.7884 134.776 25.1534C134.912 25.5184 134.98 25.9166 134.98 26.348C134.98 26.7794 134.912 27.1776 134.776 27.5426C134.639 27.9077 134.434 28.2063 134.195 28.505C133.956 28.7704 133.649 28.9695 133.273 29.1355C132.898 29.3014 132.522 29.3677 132.078 29.3677ZM140.444 30.9274L144.985 24.8216V30.9274H147V21.8018H144.917L140.512 27.7086V21.8018H138.498V30.9274H140.444ZM145.259 20.1758L144.473 19.5453C144.268 19.8108 144.029 20.0099 143.756 20.1758C143.483 20.3086 143.141 20.4081 142.8 20.4081C142.424 20.4081 142.083 20.3417 141.81 20.1758C141.537 20.0431 141.263 19.8108 141.093 19.5453L140.307 20.1758C140.512 20.4081 140.717 20.6404 140.99 20.8063C141.263 20.9722 141.537 21.1381 141.844 21.2377C142.151 21.3373 142.459 21.3704 142.8 21.3704C143.141 21.3704 143.483 21.3041 143.79 21.2377C144.098 21.1381 144.371 21.0054 144.644 20.8063C144.849 20.6404 145.054 20.4413 145.259 20.1758Z" fill="black"/>
<defs>
<linearGradient id="paint0_linear_156_490" x1="24.6728" y1="24.6441" x2="16.5916" y2="31.8727" gradientUnits="userSpaceOnUse">
<stop stop-color="#E51A28"/>
<stop offset="0.1178" stop-color="#DD1D28"/>
<stop offset="0.31" stop-color="#C92228"/>
<stop offset="0.5527" stop-color="#A92727"/>
<stop offset="0.8336" stop-color="#7F2A26"/>
<stop offset="1" stop-color="#632A25"/>
</linearGradient>
<linearGradient id="paint1_linear_156_490" x1="15.057" y1="10.845" x2="23.4994" y2="3.02301" gradientUnits="userSpaceOnUse">
<stop stop-color="#FDCC00"/>
<stop offset="1" stop-color="#D2701C"/>
</linearGradient>
<linearGradient id="paint2_linear_156_490" x1="26.0707" y1="14.173" x2="32.3671" y2="21.1209" gradientUnits="userSpaceOnUse">
<stop stop-color="#0072BB"/>
<stop offset="0.2977" stop-color="#005B96"/>
<stop offset="0.5925" stop-color="#1C497C"/>
<stop offset="0.8367" stop-color="#273E6D"/>
<stop offset="1" stop-color="#293A68"/>
</linearGradient>
<linearGradient id="paint3_linear_156_490" x1="13.004" y1="24.3529" x2="5.18154" y2="15.0932" gradientUnits="userSpaceOnUse">
<stop stop-color="#BBCB12"/>
<stop offset="0.3965" stop-color="#8A9B2B"/>
<stop offset="1" stop-color="#465C30"/>
</linearGradient>
</defs>
</svg>
