<svg width="104" height="24" viewBox="0 0 104 24" fill="none" xmlns="http://www.w3.org/2000/svg">
<path d="M8.86828 9.62066L4.80487 4.77582L8.69755 0.495098H6.10243L2.72194 4.57671V0.495098H0.707306V9.62066H2.72194V6.83322L3.47316 5.97043L6.3756 9.62066H8.86828ZM19.0439 9.62066L15.3561 0.495098H12.8293L9.14145 9.62066H11.4634L12.078 8.06102H16.1756L16.7561 9.62066H19.0439ZM15.561 6.36864H12.5902L14.0927 2.45295L15.561 6.36864ZM28.1268 9.62066V0.495098H19.5561V9.62066H21.5707V2.18747H26.078V9.58747H28.1268V9.62066ZM31.9512 9.62066L36.4927 3.51483V9.62066H38.5073V0.495098H36.4244L32.0195 6.40182V0.495098H30.0049V9.62066H31.9512ZM44.6536 9.62066V2.18747H47.4195V0.461914H39.8049V2.18747H42.6049V9.58747H44.6536V9.62066ZM57.6293 9.62066L53.9414 0.495098H51.4146L47.7268 9.62066H50.0488L50.6634 8.06102H54.761L55.3414 9.62066H57.6293ZM54.1805 6.36864H51.2097L52.7122 2.45295L54.1805 6.36864ZM57.9366 9.78658C58.3122 9.78658 58.6878 9.75339 59.0292 9.68703C59.3707 9.62066 59.678 9.48792 59.9854 9.28882C60.2927 9.08972 60.5317 8.85743 60.7707 8.49241C61.0097 8.16057 61.2146 7.72918 61.3854 7.19824C61.5561 6.66729 61.6927 6.0368 61.761 5.27357L62.1366 2.18747H65.039V9.58747H67.0878V0.495098H60.3268L59.7805 5.17402C59.7122 5.77133 59.6097 6.26909 59.5073 6.63411C59.4049 6.99913 59.2683 7.29779 59.1317 7.53008C58.9951 7.72918 58.8244 7.8951 58.6195 7.96147C58.4146 8.02783 58.2097 8.0942 57.9707 8.06102V9.78658H57.9366ZM71.8683 7.03232V5.53904H68.4536V7.03232H71.8683ZM2.65365 22.9274L7.19511 16.8216V22.9274H9.20974V13.8018H7.12682L2.72194 19.7086V13.8018H0.707306V22.9274H2.65365ZM19.6927 22.9274V13.8018H17.6439V17.3857H13.1366V13.8018H11.1219V22.9274H13.1366V19.1112H17.6439V22.9274H19.6927ZM26.7268 22.9274C27.1707 22.9274 27.5805 22.861 27.9219 22.7283C28.2634 22.5955 28.5707 22.4296 28.7756 22.1973C29.0146 21.9651 29.1854 21.6996 29.2878 21.4009C29.3902 21.1023 29.4585 20.7704 29.4585 20.4386C29.4585 20.0404 29.3561 19.7086 29.2195 19.3767C29.0488 19.0449 28.8439 18.7794 28.5707 18.5803C28.2976 18.3812 27.9902 18.2485 27.6488 18.1821C27.9561 18.1157 28.2293 18.0162 28.4683 17.8171C28.7073 17.6512 28.9122 17.3857 29.0488 17.1202C29.1854 16.8216 29.2878 16.4897 29.2878 16.0915C29.2878 15.7929 29.2195 15.4942 29.1171 15.2287C29.0146 14.9633 28.8439 14.6978 28.6049 14.4987C28.3658 14.2664 28.0927 14.1005 27.7512 13.9677C27.4097 13.835 27 13.7686 26.5561 13.7686H21.5366V22.8942H26.7268V22.9274ZM26.1463 17.452H23.5854V15.461H26.1122C26.3512 15.461 26.5561 15.4942 26.6927 15.5938C26.8634 15.6933 27 15.7929 27.0683 15.9588C27.1707 16.1247 27.2049 16.2906 27.2049 16.4897C27.2049 16.6888 27.1707 16.8547 27.0683 16.9875C26.9658 17.1202 26.8634 17.2529 26.6927 17.3193C26.5561 17.4189 26.3512 17.452 26.1463 17.452ZM26.2146 21.2682H23.5854V19.1444H26.2146C26.4878 19.1444 26.6927 19.2108 26.8975 19.2772C27.0683 19.3767 27.2049 19.5094 27.3073 19.6754C27.4097 19.8413 27.4439 20.0072 27.4439 20.2063C27.4439 20.5381 27.3414 20.8036 27.1366 20.9695C26.8975 21.1686 26.5902 21.235 26.2146 21.2682ZM37.7902 22.9274V21.2018H33.078V19.1444H37.6878V17.4189H33.078V15.4942H37.7902V13.7686H31.0293V22.8942H37.7902V22.9274ZM43.9707 23.0933C44.4829 23.0933 44.961 23.0269 45.3707 22.8942C45.7805 22.7615 46.1561 22.5955 46.4975 22.3964C46.8049 22.1973 47.1122 21.9319 47.3512 21.6664C47.5902 21.4009 47.7951 21.1355 47.9658 20.8368L46.2244 20.0404C46.0878 20.3059 45.9171 20.505 45.678 20.7041C45.439 20.9032 45.2 21.0691 44.8927 21.1686C44.5854 21.3014 44.278 21.3346 43.9707 21.3346C43.5268 21.3346 43.1512 21.2682 42.7756 21.1023C42.4 20.9695 42.0927 20.7373 41.8195 20.4718C41.5463 20.2063 41.3414 19.8745 41.2049 19.5094C41.0683 19.1444 41 18.7462 40.9658 18.3148C40.9658 17.8834 41.0341 17.4852 41.2049 17.1202C41.3414 16.7552 41.5463 16.4234 41.8195 16.1579C42.0927 15.8924 42.4 15.6933 42.7756 15.5274C43.1512 15.3947 43.5268 15.2951 43.9707 15.2951C44.3122 15.2951 44.6195 15.3615 44.8927 15.461C45.2 15.5938 45.439 15.7265 45.678 15.9256C45.9171 16.1247 46.0878 16.357 46.2244 16.5893L47.9658 15.7597C47.7951 15.461 47.5902 15.1955 47.3512 14.9301C47.1122 14.6646 46.839 14.4323 46.4975 14.2332C46.1902 14.0341 45.8146 13.8682 45.3707 13.7355C44.961 13.6027 44.4829 13.5364 43.9707 13.5364C43.3902 13.5364 42.8439 13.6027 42.3317 13.7686C41.8195 13.9014 41.3414 14.1337 40.9317 14.3991C40.5219 14.6646 40.1463 14.9964 39.839 15.3947C39.5317 15.7929 39.2927 16.2242 39.1219 16.6888C38.9512 17.1866 38.8829 17.6843 38.8829 18.2485C38.8829 18.8126 38.9854 19.3435 39.1219 19.8081C39.2927 20.2727 39.5317 20.7372 39.839 21.1023C40.1463 21.5005 40.5219 21.8323 40.9317 22.0978C41.3414 22.3633 41.8195 22.5955 42.3317 22.7283C42.878 23.0269 43.3902 23.0933 43.9707 23.0933ZM53.4293 22.9274V15.5274H56.1951V13.8018H48.5805V15.5274H51.3805V22.9274H53.4293ZM62.1024 23.0933C62.6146 23.0933 63.0927 23.0269 63.5024 22.8942C63.9122 22.7615 64.2878 22.5955 64.6293 22.3964C64.9366 22.1973 65.2439 21.9319 65.4829 21.6664C65.7219 21.4009 65.9268 21.1355 66.0975 20.8368L64.3561 20.0404C64.2195 20.3059 64.0488 20.505 63.8097 20.7041C63.5707 20.9032 63.3317 21.0691 63.0244 21.1686C62.7171 21.3014 62.4097 21.3346 62.1024 21.3346C61.6585 21.3346 61.2829 21.2682 60.9073 21.1023C60.5317 20.9695 60.2244 20.7373 59.9512 20.4718C59.678 20.2063 59.4732 19.8745 59.3366 19.5094C59.2 19.1444 59.1317 18.7462 59.0975 18.3148C59.0975 17.8834 59.1658 17.4852 59.3366 17.1202C59.4732 16.7552 59.678 16.4234 59.9512 16.1579C60.2244 15.8924 60.5317 15.6933 60.9073 15.5274C61.2829 15.3947 61.6585 15.2951 62.1024 15.2951C62.4439 15.2951 62.7512 15.3615 63.0244 15.461C63.3317 15.5938 63.5707 15.7265 63.8097 15.9256C64.0488 16.1247 64.2195 16.357 64.3561 16.5893L66.0975 15.7597C65.9268 15.461 65.7219 15.1955 65.4829 14.9301C65.2439 14.6646 64.9707 14.4323 64.6293 14.2332C64.3219 14.0341 63.9463 13.8682 63.5024 13.7355C63.0927 13.6027 62.6146 13.5364 62.1024 13.5364C61.5219 13.5364 60.9756 13.6027 60.4634 13.7686C59.9512 13.9014 59.4732 14.1337 59.0634 14.3991C58.6536 14.6646 58.278 14.9964 57.9707 15.3947C57.6634 15.7929 57.4244 16.2242 57.2536 16.6888C57.0829 17.1866 57.0146 17.6843 57.0146 18.2485C57.0146 18.8126 57.1171 19.3435 57.2536 19.8081C57.4244 20.2727 57.6634 20.7372 57.9707 21.1023C58.278 21.5005 58.6536 21.8323 59.0634 22.0978C59.4732 22.3633 59.9512 22.5955 60.4634 22.7283C61.0097 23.0269 61.5561 23.0933 62.1024 23.0933ZM71.561 22.9274V15.5274H74.3268V13.8018H66.7122V15.5274H69.5122V22.9274H71.561ZM77.6731 22.9274V19.6754H80.0975C80.6097 19.6754 81.0536 19.609 81.4634 19.4431C81.8732 19.2772 82.1805 19.0781 82.4536 18.8126C82.7268 18.5471 82.9317 18.2153 83.0683 17.8834C83.2049 17.5184 83.2731 17.1534 83.2731 16.7552C83.2731 16.357 83.2049 15.9588 83.0683 15.6269C82.9317 15.2619 82.7268 14.9633 82.4536 14.6978C82.1805 14.4323 81.839 14.2 81.4634 14.0673C81.0536 13.9014 80.6097 13.835 80.0975 13.835H75.6244V22.9606H77.6731V22.9274ZM79.8244 17.983H77.6731V15.5274H79.8244C80.0975 15.5274 80.3366 15.5938 80.5414 15.6601C80.7463 15.7597 80.9171 15.8924 81.0536 16.0915C81.1902 16.2574 81.2244 16.4897 81.2244 16.7552C81.2244 17.0207 81.1561 17.2198 81.0536 17.4189C80.9512 17.5848 80.7805 17.7507 80.5414 17.8503C80.3366 17.9166 80.0975 17.983 79.8244 17.983ZM89.078 23.0933C89.7951 23.0933 90.478 22.9606 91.0927 22.7283C91.7073 22.496 92.2195 22.1642 92.6634 21.7659C93.1073 21.3346 93.4488 20.8368 93.6878 20.2727C93.9268 19.7086 94.0634 19.0781 94.0634 18.3812C94.0634 17.6843 93.9268 17.0538 93.6878 16.4897C93.4488 15.9256 93.1073 15.4278 92.6634 14.9964C92.2195 14.5651 91.6732 14.2332 91.0927 14.0341C90.478 13.8018 89.8292 13.6691 89.078 13.6691C88.361 13.6691 87.678 13.8018 87.0975 14.0341C86.4829 14.2664 85.9707 14.5982 85.5268 14.9964C85.0829 15.4278 84.7414 15.9256 84.5024 16.4897C84.2634 17.0538 84.1268 17.6843 84.1268 18.3812C84.1268 19.0781 84.2634 19.7086 84.5024 20.2727C84.7414 20.8368 85.0829 21.3346 85.5268 21.7659C85.9707 22.1973 86.4829 22.5292 87.0975 22.7283C87.678 22.9938 88.361 23.0933 89.078 23.0933ZM89.078 21.3677C88.6341 21.3677 88.2244 21.3014 87.8829 21.1355C87.5414 20.9695 87.2341 20.7704 86.961 20.505C86.7219 20.2395 86.5171 19.9077 86.3805 19.5426C86.2439 19.1776 86.1756 18.7794 86.1756 18.348C86.1756 17.9166 86.2439 17.5184 86.3805 17.1534C86.5171 16.7884 86.7219 16.4897 86.961 16.1911C87.2 15.9256 87.5073 15.7265 87.8829 15.5606C88.2244 15.3947 88.6341 15.3283 89.078 15.3283C89.5219 15.3283 89.9317 15.3947 90.2731 15.5606C90.6146 15.6933 90.9219 15.9256 91.1951 16.1911C91.4341 16.4565 91.639 16.7884 91.7756 17.1534C91.9122 17.5184 91.9805 17.9166 91.9805 18.348C91.9805 18.7794 91.9122 19.1776 91.7756 19.5426C91.639 19.9077 91.4341 20.2063 91.1951 20.505C90.9561 20.7704 90.6488 20.9695 90.2731 21.1355C89.8975 21.3014 89.5219 21.3677 89.078 21.3677ZM97.4439 22.9274L101.985 16.8216V22.9274H104V13.8018H101.917L97.5122 19.7086V13.8018H95.4975V22.9274H97.4439ZM102.259 12.1758L101.473 11.5453C101.268 11.8108 101.029 12.0099 100.756 12.1758C100.483 12.3086 100.141 12.4081 99.8 12.4081C99.4244 12.4081 99.0829 12.3417 98.8097 12.1758C98.5366 12.0431 98.2634 11.8108 98.0927 11.5453L97.3073 12.1758C97.5122 12.4081 97.717 12.6404 97.9902 12.8063C98.2634 12.9722 98.5366 13.1381 98.8439 13.2377C99.1512 13.3373 99.4585 13.3704 99.8 13.3704C100.141 13.3704 100.483 13.3041 100.79 13.2377C101.098 13.1381 101.371 13.0054 101.644 12.8063C101.849 12.6404 102.054 12.4413 102.259 12.1758Z" fill="black"/>
</svg>
