<svg width="189" height="47" viewBox="0 0 189 47" fill="none" xmlns="http://www.w3.org/2000/svg">
<g clip-path="url(#clip0_156_502)">
<path fill-rule="evenodd" clip-rule="evenodd" d="M20.7658 46.621L14.9268 41.0569C14.4 40.5511 14.4 39.708 14.9268 39.16L28.1853 26.4721C28.7122 25.9663 29.5902 25.9663 30.1609 26.4721L35.9561 32.0363C36.4829 32.5421 36.4829 33.3852 35.9561 33.9331L22.6975 46.621C22.1707 47.1269 21.2927 47.1269 20.7658 46.621Z" fill="url(#paint0_linear_156_502)"/>
<path fill-rule="evenodd" clip-rule="evenodd" d="M20.7658 46.6213L14.9268 41.0572C14.8829 41.0151 14.839 40.9308 14.7512 40.8886C19.2292 40.3828 25.9024 39.329 32.6634 37.0527L22.6536 46.6635C22.1707 47.1272 21.2926 47.1272 20.7658 46.6213Z" fill="#98191C"/>
<path fill-rule="evenodd" clip-rule="evenodd" d="M27.8781 0.379372L33.6732 5.9435C34.2 6.44933 34.2 7.29238 33.6732 7.84036L20.4585 20.5283C19.9317 21.0341 19.0537 21.0341 18.4829 20.5283L12.6878 14.9641C12.161 14.4583 12.161 13.6152 12.6878 13.0673L25.9464 0.379372C26.4732 -0.126457 27.3512 -0.126457 27.8781 0.379372Z" fill="url(#paint1_linear_156_502)"/>
<path fill-rule="evenodd" clip-rule="evenodd" d="M27.878 0.379372L33.6732 5.9435C33.7171 5.98565 33.761 6.06996 33.8488 6.11211C29.3707 6.61794 22.6976 7.67175 15.9366 9.94798L25.9463 0.379372C26.4732 -0.126457 27.3512 -0.126457 27.878 0.379372Z" fill="#EF8B07"/>
<path fill-rule="evenodd" clip-rule="evenodd" d="M48.2487 26.9352L42.4536 32.4993C41.9267 33.0051 41.0487 33.0051 40.478 32.4993L27.3072 19.7271C26.7804 19.2212 26.7804 18.3782 27.3072 17.8302L33.1024 12.2661C33.6292 11.7603 34.5072 11.7603 35.078 12.2661L48.2926 24.9961C48.8194 25.5441 48.8194 26.4293 48.2487 26.9352Z" fill="url(#paint2_linear_156_502)"/>
<path fill-rule="evenodd" clip-rule="evenodd" d="M48.2488 26.9352L42.4537 32.4993C42.4098 32.5415 42.322 32.5836 42.2781 32.6679C41.7512 28.3684 40.6537 21.9612 38.3268 15.4697L48.2927 25.0805C48.8195 25.5442 48.8195 26.4294 48.2488 26.9352Z" fill="#144072"/>
<path fill-rule="evenodd" clip-rule="evenodd" d="M0.395122 19.9796L6.19024 14.4155C6.71707 13.9097 7.59512 13.9097 8.16585 14.4155L21.3805 27.1456C21.9073 27.6514 21.9073 28.4944 21.3805 29.0424L15.5415 34.5644C15.0146 35.0702 14.1366 35.0702 13.5659 34.5644L0.395122 21.8343C-0.131707 21.3285 -0.131707 20.4855 0.395122 19.9796Z" fill="url(#paint3_linear_156_502)"/>
<path fill-rule="evenodd" clip-rule="evenodd" d="M0.395122 19.9798L6.19024 14.4157C6.23415 14.3735 6.32195 14.3314 6.36585 14.2471C6.89268 18.5466 7.99024 24.9538 10.3171 31.4453L0.395122 21.8345C-0.131707 21.3287 -0.131707 20.4856 0.395122 19.9798Z" fill="#68872C"/>
<path d="M66.6878 22.3831L61.4634 16.2288L66.4683 10.7912H63.1317L58.7854 15.9759V10.7912H56.1951V22.3831H58.7854V18.8423L59.7512 17.7463L63.4829 22.3831H66.6878ZM79.7707 22.3831L75.0293 10.7912H71.7805L67.039 22.3831H70.0244L70.8146 20.4019H76.0829L76.8293 22.3831H79.7707ZM75.2927 18.2522H71.4732L73.4049 13.2782L75.2927 18.2522ZM91.4488 22.3831V10.7912H80.4293V22.3831H83.0195V12.941H88.8146V22.341H91.4488V22.3831ZM96.3659 22.3831L102.205 14.6271V22.3831H104.795V10.7912H102.117L96.4537 18.2943V10.7912H93.8634V22.3831H96.3659ZM112.698 22.3831V12.941H116.254V10.749H106.463V12.941H110.063V22.341H112.698V22.3831ZM129.38 22.3831L124.639 10.7912H121.39L116.649 22.3831H119.634L120.424 20.4019H125.693L126.439 22.3831H129.38ZM124.946 18.2522H121.127L123.059 13.2782L124.946 18.2522ZM129.776 22.5939C130.259 22.5939 130.741 22.5517 131.18 22.4674C131.62 22.3831 132.015 22.2145 132.41 21.9616C132.805 21.7087 133.112 21.4136 133.42 20.9499C133.727 20.5284 133.99 19.9804 134.21 19.306C134.429 18.6315 134.605 17.8306 134.693 16.8611L135.176 12.941H138.907V22.341H141.541V10.7912H132.849L132.146 16.7347C132.059 17.4934 131.927 18.1257 131.795 18.5894C131.663 19.0531 131.488 19.4324 131.312 19.7275C131.137 19.9804 130.917 20.1912 130.654 20.2755C130.39 20.3598 130.127 20.4441 129.82 20.4019V22.5939H129.776ZM147.688 19.0952V17.1984H143.298V19.0952H147.688ZM58.6976 39.2862L64.5366 31.5302V39.2862H67.1268V27.6943H64.4488L58.7854 35.1975V27.6943H56.1951V39.2862H58.6976ZM80.6049 39.2862V27.6943H77.9707V32.2468H72.1756V27.6943H69.5854V39.2862H72.1756V34.4387H77.9707V39.2862H80.6049ZM89.6488 39.2862C90.2195 39.2862 90.7463 39.2019 91.1854 39.0333C91.6244 38.8647 92.0195 38.654 92.2829 38.3589C92.5902 38.0638 92.8098 37.7266 92.9415 37.3472C93.0732 36.9679 93.161 36.5463 93.161 36.1248C93.161 35.619 93.0293 35.1975 92.8537 34.7759C92.6342 34.3544 92.3707 34.0172 92.0195 33.7643C91.6683 33.5114 91.2732 33.3427 90.8341 33.2584C91.2293 33.1741 91.5805 33.0477 91.8878 32.7948C92.1951 32.584 92.4585 32.2468 92.6342 31.9096C92.8098 31.5302 92.9415 31.1087 92.9415 30.6028C92.9415 30.2235 92.8537 29.8441 92.722 29.5069C92.5902 29.1697 92.3707 28.8324 92.0634 28.5795C91.7561 28.2845 91.4049 28.0737 90.9659 27.9051C90.5268 27.7365 90 27.6522 89.4293 27.6522H82.9756V39.2441H89.6488V39.2862ZM88.9024 32.3311H85.6098V29.8019H88.8585C89.1659 29.8019 89.4293 29.8441 89.6049 29.9705C89.8244 30.097 90 30.2235 90.0878 30.4342C90.2195 30.645 90.2634 30.8558 90.2634 31.1087C90.2634 31.3616 90.2195 31.5723 90.0878 31.741C89.9561 31.9096 89.8244 32.0782 89.6049 32.1625C89.4293 32.2889 89.1659 32.3311 88.9024 32.3311ZM88.9902 37.1786H85.6098V34.4809H88.9902C89.3415 34.4809 89.6049 34.5652 89.8683 34.6495C90.0878 34.7759 90.2634 34.9445 90.3951 35.1553C90.5268 35.3661 90.5707 35.5768 90.5707 35.8297C90.5707 36.2513 90.439 36.5885 90.1756 36.7992C89.8683 37.0522 89.4732 37.1365 88.9902 37.1786ZM103.873 39.2862V37.0943H97.8146V34.4809H103.741V32.2889H97.8146V29.8441H103.873V27.6522H95.1805V39.2441H103.873V39.2862ZM111.82 39.497C112.478 39.497 113.093 39.4127 113.62 39.2441C114.146 39.0755 114.629 38.8647 115.068 38.6118C115.463 38.3589 115.859 38.0217 116.166 37.6845C116.473 37.3472 116.737 37.01 116.956 36.6306L114.717 35.619C114.541 35.9562 114.322 36.2091 114.015 36.462C113.707 36.7149 113.4 36.9257 113.005 37.0522C112.61 37.2208 112.215 37.2629 111.82 37.2629C111.249 37.2629 110.766 37.1786 110.283 36.9679C109.8 36.7992 109.405 36.5042 109.054 36.167C108.702 35.8297 108.439 35.4082 108.263 34.9445C108.088 34.4809 108 33.975 107.956 33.4271C107.956 32.8791 108.044 32.3732 108.263 31.9096C108.439 31.4459 108.702 31.0244 109.054 30.6871C109.405 30.3499 109.8 30.097 110.283 29.8862C110.766 29.7176 111.249 29.5912 111.82 29.5912C112.259 29.5912 112.654 29.6755 113.005 29.8019C113.4 29.9705 113.707 30.1392 114.015 30.3921C114.322 30.645 114.541 30.9401 114.717 31.2351L116.956 30.1813C116.737 29.8019 116.473 29.4647 116.166 29.1275C115.859 28.7903 115.507 28.4952 115.068 28.2423C114.673 27.9894 114.19 27.7786 113.62 27.61C113.093 27.4414 112.478 27.3571 111.82 27.3571C111.073 27.3571 110.371 27.4414 109.712 27.6522C109.054 27.8208 108.439 28.1158 107.912 28.4531C107.385 28.7903 106.902 29.2118 106.507 29.7176C106.112 30.2235 105.805 30.7714 105.585 31.3616C105.366 31.9939 105.278 32.6262 105.278 33.3427C105.278 34.0593 105.41 34.7338 105.585 35.3239C105.805 35.914 106.112 36.5042 106.507 36.9679C106.902 37.4737 107.385 37.8952 107.912 38.2324C108.439 38.5697 109.054 38.8647 109.712 39.0333C110.415 39.4127 111.073 39.497 111.82 39.497ZM123.98 39.2862V29.8862H127.537V27.6943H117.746V29.8862H121.346V39.2862H123.98ZM135.132 39.497C135.79 39.497 136.405 39.4127 136.932 39.2441C137.459 39.0755 137.941 38.8647 138.38 38.6118C138.776 38.3589 139.171 38.0217 139.478 37.6845C139.785 37.3472 140.049 37.01 140.268 36.6306L138.029 35.619C137.854 35.9562 137.634 36.2091 137.327 36.462C137.02 36.7149 136.712 36.9257 136.317 37.0522C135.922 37.2208 135.527 37.2629 135.132 37.2629C134.561 37.2629 134.078 37.1786 133.595 36.9679C133.112 36.7992 132.717 36.5042 132.366 36.167C132.015 35.8297 131.751 35.4082 131.576 34.9445C131.4 34.4809 131.312 33.975 131.268 33.4271C131.268 32.8791 131.356 32.3732 131.576 31.9096C131.751 31.4459 132.015 31.0244 132.366 30.6871C132.717 30.3499 133.112 30.097 133.595 29.8862C134.078 29.7176 134.561 29.5912 135.132 29.5912C135.571 29.5912 135.966 29.6755 136.317 29.8019C136.712 29.9705 137.02 30.1392 137.327 30.3921C137.634 30.645 137.854 30.9401 138.029 31.2351L140.268 30.1813C140.049 29.8019 139.785 29.4647 139.478 29.1275C139.171 28.7903 138.82 28.4952 138.38 28.2423C137.985 27.9894 137.502 27.7786 136.932 27.61C136.405 27.4414 135.79 27.3571 135.132 27.3571C134.385 27.3571 133.683 27.4414 133.024 27.6522C132.366 27.8208 131.751 28.1158 131.224 28.4531C130.698 28.7903 130.215 29.2118 129.82 29.7176C129.424 30.2235 129.117 30.7714 128.898 31.3616C128.678 31.9939 128.59 32.6262 128.59 33.3427C128.59 34.0593 128.722 34.7338 128.898 35.3239C129.117 35.914 129.424 36.5042 129.82 36.9679C130.215 37.4737 130.698 37.8952 131.224 38.2324C131.751 38.5697 132.366 38.8647 133.024 39.0333C133.727 39.4127 134.429 39.497 135.132 39.497ZM147.293 39.2862V29.8862H150.849V27.6943H141.059V29.8862H144.659V39.2862H147.293ZM155.151 39.2862V35.1553H158.268C158.927 35.1553 159.498 35.071 160.024 34.8602C160.551 34.6495 160.946 34.3966 161.298 34.0593C161.649 33.7221 161.912 33.3006 162.088 32.8791C162.263 32.4154 162.351 31.9517 162.351 31.4459C162.351 30.9401 162.263 30.4342 162.088 30.0127C161.912 29.549 161.649 29.1697 161.298 28.8324C160.946 28.4952 160.507 28.2001 160.024 28.0315C159.498 27.8208 158.927 27.7365 158.268 27.7365H152.517V39.3284H155.151V39.2862ZM157.917 33.0055H155.151V29.8862H157.917C158.268 29.8862 158.576 29.9706 158.839 30.0549C159.102 30.1813 159.322 30.3499 159.498 30.6028C159.673 30.8136 159.717 31.1087 159.717 31.4459C159.717 31.7831 159.629 32.036 159.498 32.2889C159.366 32.4997 159.146 32.7105 158.839 32.8369C158.576 32.9212 158.268 33.0055 157.917 33.0055ZM169.815 39.497C170.737 39.497 171.615 39.3284 172.405 39.0333C173.195 38.7383 173.854 38.3167 174.424 37.8109C174.995 37.2629 175.434 36.6306 175.741 35.914C176.049 35.1975 176.224 34.3966 176.224 33.5114C176.224 32.6262 176.049 31.8253 175.741 31.1087C175.434 30.3921 174.995 29.7598 174.424 29.2118C173.854 28.6638 173.151 28.2423 172.405 27.9894C171.615 27.6943 170.78 27.5257 169.815 27.5257C168.893 27.5257 168.015 27.6943 167.268 27.9894C166.478 28.2845 165.82 28.706 165.249 29.2118C164.678 29.7598 164.239 30.3921 163.932 31.1087C163.624 31.8253 163.449 32.6262 163.449 33.5114C163.449 34.3966 163.624 35.1975 163.932 35.914C164.239 36.6306 164.678 37.2629 165.249 37.8109C165.82 38.3589 166.478 38.7804 167.268 39.0333C168.015 39.3705 168.893 39.497 169.815 39.497ZM169.815 37.3051C169.244 37.3051 168.717 37.2208 168.278 37.01C167.839 36.7992 167.444 36.5463 167.093 36.2091C166.785 35.8719 166.522 35.4504 166.346 34.9867C166.171 34.523 166.083 34.0172 166.083 33.4692C166.083 32.9212 166.171 32.4154 166.346 31.9517C166.522 31.488 166.785 31.1087 167.093 30.7293C167.4 30.3921 167.795 30.1392 168.278 29.9284C168.717 29.7176 169.244 29.6333 169.815 29.6333C170.385 29.6333 170.912 29.7176 171.351 29.9284C171.79 30.097 172.185 30.3921 172.537 30.7293C172.844 31.0665 173.107 31.488 173.283 31.9517C173.459 32.4154 173.546 32.9212 173.546 33.4692C173.546 34.0172 173.459 34.523 173.283 34.9867C173.107 35.4504 172.844 35.8297 172.537 36.2091C172.229 36.5463 171.834 36.7992 171.351 37.01C170.868 37.2208 170.385 37.3051 169.815 37.3051ZM180.571 39.2862L186.41 31.5302V39.2862H189V27.6943H186.322L180.659 35.1975V27.6943H178.068V39.2862H180.571ZM186.761 25.6288L185.751 24.8279C185.488 25.1652 185.18 25.4181 184.829 25.6288C184.478 25.7975 184.039 25.9239 183.6 25.9239C183.117 25.9239 182.678 25.8396 182.327 25.6288C181.976 25.4602 181.624 25.1652 181.405 24.8279L180.395 25.6288C180.659 25.9239 180.922 26.219 181.273 26.4297C181.624 26.6405 181.976 26.8513 182.371 26.9777C182.766 27.1042 183.161 27.1463 183.6 27.1463C184.039 27.1463 184.478 27.062 184.873 26.9777C185.268 26.8513 185.62 26.6827 185.971 26.4297C186.234 26.219 186.498 25.9661 186.761 25.6288Z" fill="black"/>
</g>
<defs>
<linearGradient id="paint0_linear_156_502" x1="31.7222" y1="31.3051" x2="21.4438" y2="40.6108" gradientUnits="userSpaceOnUse">
<stop stop-color="#E51A28"/>
<stop offset="0.1178" stop-color="#DD1D28"/>
<stop offset="0.31" stop-color="#C92228"/>
<stop offset="0.5527" stop-color="#A92727"/>
<stop offset="0.8336" stop-color="#7F2A26"/>
<stop offset="1" stop-color="#632A25"/>
</linearGradient>
<linearGradient id="paint1_linear_156_502" x1="19.359" y1="13.7761" x2="30.0922" y2="3.71071" gradientUnits="userSpaceOnUse">
<stop stop-color="#FDCC00"/>
<stop offset="1" stop-color="#D2701C"/>
</linearGradient>
<linearGradient id="paint2_linear_156_502" x1="33.5194" y1="18.0033" x2="41.5075" y2="26.9251" gradientUnits="userSpaceOnUse">
<stop stop-color="#0072BB"/>
<stop offset="0.2977" stop-color="#005B96"/>
<stop offset="0.5925" stop-color="#1C497C"/>
<stop offset="0.8367" stop-color="#273E6D"/>
<stop offset="1" stop-color="#293A68"/>
</linearGradient>
<linearGradient id="paint3_linear_156_502" x1="16.7194" y1="30.9342" x2="6.80354" y2="19.0537" gradientUnits="userSpaceOnUse">
<stop stop-color="#BBCB12"/>
<stop offset="0.3965" stop-color="#8A9B2B"/>
<stop offset="1" stop-color="#465C30"/>
</linearGradient>
<clipPath id="clip0_156_502">
<rect width="189" height="47" fill="white"/>
</clipPath>
</defs>
</svg>
