<svg width="30" height="30" viewBox="0 0 30 30" fill="none" xmlns="http://www.w3.org/2000/svg">
<path d="M15 0C6.71581 0 0 6.71581 0 15C0 23.2842 6.71581 30 15 30C23.2842 30 30 23.2842 30 15C30 6.71581 23.2842 0 15 0ZM14.4926 7.81605C14.6033 7.81392 14.7192 7.83095 14.8187 7.83065C14.8592 7.83035 14.8966 7.8273 14.9291 7.81909C18.5112 7.94928 21.637 11.2056 21.5719 14.7877C21.5719 15.1132 21.7021 15.6342 21.1811 15.6342C20.66 15.6342 20.7902 15.1132 20.7902 14.7226C20.7333 14.2505 20.6557 13.8097 20.5569 13.3991C20.458 12.9884 20.3372 12.6076 20.194 12.255C19.9786 11.7261 19.7121 11.2606 19.3894 10.8533C18.4218 9.63112 16.952 8.93058 14.8637 8.60085C14.5382 8.53575 14.0823 8.60085 14.0823 8.20997C14.0823 7.87172 14.2773 7.81574 14.4926 7.81605ZM19.4226 14.9179C18.8364 14.983 18.9666 14.4619 18.9015 14.1364C18.5106 11.8569 17.7292 11.0103 15.3848 10.4892C15.059 10.4241 14.5382 10.4892 14.6033 9.96816C14.6684 9.44709 15.1895 9.64268 15.515 9.70778C17.8596 9.96816 19.7483 11.9219 19.7483 14.1364C19.6829 14.3968 19.8785 14.8528 19.4226 14.9179ZM17.9898 13.7455C17.9898 14.0059 17.9898 14.3317 17.599 14.3968C17.3386 14.3968 17.2081 14.2015 17.143 13.9408C17.0779 12.9641 16.5568 12.443 15.5801 12.3125C15.3197 12.2474 14.9939 12.1823 15.1241 11.7915C15.1892 11.5311 15.4496 11.5311 15.7103 11.5311C16.8175 11.4663 17.9898 12.6386 17.9898 13.7455ZM21.6367 20.9097C21.2458 22.017 19.8782 23.1239 18.7059 23.1239C18.5757 23.0588 18.2499 23.0588 17.9244 22.9286C12.8445 20.7144 9.06716 17.1323 6.98319 11.9223C6.26683 10.2288 7.04828 8.73104 8.80678 8.14487C9.13226 8.01468 9.45804 8.01468 9.78352 8.14487C10.565 8.40526 12.4537 11.0757 12.5188 11.8572C12.5839 12.5084 12.1279 12.8339 11.7373 13.0946C10.9559 13.6157 10.9559 14.332 11.2813 15.0484C12.0628 16.7418 13.3653 17.8487 14.9936 18.6305C15.5798 18.8908 16.1659 18.8908 16.5565 18.2396C17.2729 17.1323 18.1845 17.1323 19.1616 17.8487C19.6175 18.1742 20.1383 18.5 20.5943 18.8908C21.2461 19.4116 22.0276 19.8676 21.6367 20.9097Z" fill="#282828"/>
</svg>
